<svg xmlns="http://www.w3.org/2000/svg" viewBox="0 0 141.62 39.24"><defs><style>.cls-1{fill:#263238;}</style></defs><title>dark-assembla-logo</title><g id="Layer_2" data-name="Layer 2"><g id="universal_elements" data-name="universal elements"><path class="cls-1" d="M52.45,22.42H46.33l-1.15,2.86a.57.57,0,0,1-.62.44.64.64,0,0,1-.44-.18c-.18-.09-.18-.28-.18-.44a.34.34,0,0,1,.09-.28l4.16-10.25a2.78,2.78,0,0,1,.53-.9,1.06,1.06,0,0,1,1.43,0,2.54,2.54,0,0,1,.53.9l4.16,10.25c0,.09.09.18.09.28a.64.64,0,0,1-.18.44.69.69,0,0,1-.44.18.61.61,0,0,1-.62-.44Zm-3-7.66-2.65,6.69h5.31Z"/><path class="cls-1" d="M57.67,24.38c-.09-.09-.09-.09-.09-.18s.09-.28.28-.44a.49.49,0,0,1,.44-.18c.09,0,.18,0,.18.09a3.82,3.82,0,0,0,1.41.81,4,4,0,0,0,1.87.35,3.86,3.86,0,0,0,2.12-.53,1.82,1.82,0,0,0,.81-1.62,2.77,2.77,0,0,0-.09-.9,1.78,1.78,0,0,0-.44-.62,1.87,1.87,0,0,0-.72-.44,7.84,7.84,0,0,0-1-.35l-2.22-.72a4.7,4.7,0,0,1-2-1.15,2.56,2.56,0,0,1-.72-1.87,2.82,2.82,0,0,1,2-2.75,5.2,5.2,0,0,1,2.12-.35,6.53,6.53,0,0,1,2.22.44,6.07,6.07,0,0,1,1.59.9.73.73,0,0,1,.18.35.4.4,0,0,1-.18.35.73.73,0,0,1-.35.18c-.09,0-.28,0-.35-.09a7.46,7.46,0,0,0-1.25-.72,5.53,5.53,0,0,0-1.78-.35,3.86,3.86,0,0,0-2.12.53,1.73,1.73,0,0,0-.81,1.43,1.56,1.56,0,0,0,.44,1.15,5.82,5.82,0,0,0,1.5.81l2.22.72c.44.18.88.35,1.15.44a3,3,0,0,1,.88.62,2,2,0,0,1,.62.9,2.35,2.35,0,0,1,.18,1.15,3,3,0,0,1-1.15,2.59,5.17,5.17,0,0,1-3.28.9A5.11,5.11,0,0,1,57.67,24.38Z"/><path class="cls-1" d="M69.37,24.38c-.09-.09-.09-.09-.09-.18s.09-.28.28-.44a.49.49,0,0,1,.44-.18c.09,0,.18,0,.18.09a3.82,3.82,0,0,0,1.41.81,4,4,0,0,0,1.87.35,3.86,3.86,0,0,0,2.12-.53,1.82,1.82,0,0,0,.81-1.62,2.77,2.77,0,0,0-.09-.9,1.78,1.78,0,0,0-.44-.62,1.87,1.87,0,0,0-.72-.44,7.84,7.84,0,0,0-1-.35L72,19.65a4.7,4.7,0,0,1-2-1.15,2.56,2.56,0,0,1-.72-1.87,2.82,2.82,0,0,1,2-2.75,5.2,5.2,0,0,1,2.12-.35,6.53,6.53,0,0,1,2.22.44,6.07,6.07,0,0,1,1.59.9.73.73,0,0,1,.18.35.4.4,0,0,1-.18.35.73.73,0,0,1-.35.18c-.09,0-.28,0-.35-.09a7.46,7.46,0,0,0-1.25-.72,5.53,5.53,0,0,0-1.78-.35,3.86,3.86,0,0,0-2.12.53,1.73,1.73,0,0,0-.81,1.43A1.56,1.56,0,0,0,71,17.71a5.82,5.82,0,0,0,1.5.81l2.22.72c.44.18.88.35,1.15.44a3,3,0,0,1,.88.62,2,2,0,0,1,.62.9,2.35,2.35,0,0,1,.18,1.15,3,3,0,0,1-1.15,2.59,5.17,5.17,0,0,1-3.28.9A5.07,5.07,0,0,1,69.37,24.38Z"/><path class="cls-1" d="M81.4,25.56a.49.49,0,0,1-.18-.44v-11a.64.64,0,0,1,.18-.44c.09-.18.28-.18.44-.18h6.37a.64.64,0,0,1,.44.18.73.73,0,0,1,.18.35.4.4,0,0,1-.18.35.85.85,0,0,1-.44.18H82.53v4.27h5.4a.64.64,0,0,1,.44.18.73.73,0,0,1,.18.35.4.4,0,0,1-.18.35.69.69,0,0,1-.44.18h-5.4v4.64h5.93a.64.64,0,0,1,.44.18.73.73,0,0,1,.18.35.4.4,0,0,1-.18.35.85.85,0,0,1-.44.18H81.91C81.77,25.72,81.58,25.65,81.4,25.56Z"/><path class="cls-1" d="M98.76,25.29a.8.8,0,0,1-.35-.44L94,15.13V25.22a.4.4,0,0,1-.18.35.61.61,0,0,1-.88,0,.47.47,0,0,1-.18-.35V14.51a.83.83,0,0,1,.35-.72,1,1,0,0,1,.72-.28c.53,0,.88.28,1.15.9l4.34,9.53,4.34-9.53c.28-.53.62-.9,1.15-.9a1,1,0,0,1,.72.28,1.06,1.06,0,0,1,.35.72V25.22a.4.4,0,0,1-.18.35.69.69,0,0,1-.44.18.64.64,0,0,1-.44-.18.47.47,0,0,1-.18-.35V15.13l-4.43,9.72a1,1,0,0,1-.35.44c-.18.09-.28.18-.44.18A.86.86,0,0,1,98.76,25.29Z"/><path class="cls-1" d="M109.93,25.56c-.18-.09-.18-.28-.18-.44v-11a.64.64,0,0,1,.18-.44,1,1,0,0,1,.53-.18h3.28c2.84,0,4.25,1.06,4.25,3.12a2.9,2.9,0,0,1-.72,1.87,2.68,2.68,0,0,1-1.87.9h0a3.31,3.31,0,0,1,2.22.9,2.91,2.91,0,0,1,.81,2.15,3,3,0,0,1-.28,1.25,3.58,3.58,0,0,1-.72,1.06,3,3,0,0,1-1.25.72,5.7,5.7,0,0,1-1.87.28h-4A.7.7,0,0,1,109.93,25.56Zm3.62-6.69a3.77,3.77,0,0,0,2.22-.53,1.88,1.88,0,0,0,.72-1.69,2.71,2.71,0,0,0-.18-.9,1.78,1.78,0,0,0-.44-.62,1.19,1.19,0,0,0-.62-.35,2.56,2.56,0,0,0-.81-.18H110.9V19l2.65-.09Zm.44,5.79a3.77,3.77,0,0,0,2.22-.53,2.28,2.28,0,0,0,.72-1.87,1.9,1.9,0,0,0-.88-1.78,5,5,0,0,0-2.65-.53H111v4.73Z"/><path class="cls-1" d="M121.7,25.56c-.18-.09-.18-.28-.18-.44v-11a.64.64,0,0,1,.18-.44,1,1,0,0,1,.53-.18.64.64,0,0,1,.44.18c.18.09.18.28.18.44V24.66h5.68a.64.64,0,0,1,.44.18.73.73,0,0,1,.18.35.4.4,0,0,1-.18.35.69.69,0,0,1-.44.18h-6.3A.72.72,0,0,1,121.7,25.56Z"/><path class="cls-1" d="M139.15,22.42H133l-1.15,2.86a.57.57,0,0,1-.62.44.64.64,0,0,1-.44-.18c-.18-.09-.18-.28-.18-.44a.34.34,0,0,1,.09-.28l4.16-10.25a2.78,2.78,0,0,1,.53-.9,1.06,1.06,0,0,1,1.43,0,2.54,2.54,0,0,1,.53.9l4.16,10.25c0,.09.09.18.09.28a.64.64,0,0,1-.18.44.69.69,0,0,1-.44.18.61.61,0,0,1-.62-.44Zm-3-7.66-2.65,6.69h5.31Z"/><path class="cls-1" d="M32.06,7.32,20.89.81A6.47,6.47,0,0,0,17.54,0a6.8,6.8,0,0,0-3.37.81l-11,6.51A7.21,7.21,0,0,0,0,13.11v13a7.21,7.21,0,0,0,3.19,5.79l11.08,6.51a6.39,6.39,0,0,0,3.28.81,6.21,6.21,0,0,0,3.28-.81L32,31.92a7.74,7.74,0,0,0,3.37-5.79v-13A7.06,7.06,0,0,0,32.06,7.32ZM25.6,26.13a.53.53,0,0,1-.35.09.93.93,0,0,1-.72-.44l-4.43-8.93-4.43,8.91a.88.88,0,0,1-.72.44c-.09,0-.28,0-.35-.09A.82.82,0,0,1,14.27,25l5-9.9-1.69-3.37-7,14.08a.79.79,0,0,1-1.41-.72L16.85,9.63a.68.68,0,0,1,.72-.44.84.84,0,0,1,.72.44l1.82,3.76L21,15.07l5,10A.82.82,0,0,1,25.6,26.13Z"/></g></g></svg>